<svg width="23" height="22" viewBox="0 0 23 22" fill="none" xmlns="http://www.w3.org/2000/svg">
<path fill-rule="evenodd" clip-rule="evenodd" d="M0.150986 1.18579H13.4925V2.3717H1.33689V20.4568H19.7185V8.00476H20.9044V21.6427H0.150986V1.18579Z" fill="#666766"/>
<path fill-rule="evenodd" clip-rule="evenodd" d="M18.5325 5.92954C19.8424 5.92954 20.9043 4.86764 20.9043 3.55772C20.9043 2.24781 19.8424 1.18591 18.5325 1.18591C17.2226 1.18591 16.1607 2.24781 16.1607 3.55772C16.1607 4.86764 17.2226 5.92954 18.5325 5.92954ZM18.5325 7.11545C20.4974 7.11545 22.0902 5.5226 22.0902 3.55772C22.0902 1.59285 20.4974 0 18.5325 0C16.5676 0 14.9748 1.59285 14.9748 3.55772C14.9748 5.5226 16.5676 7.11545 18.5325 7.11545Z" fill="#666766"/>
<path fill-rule="evenodd" clip-rule="evenodd" d="M15.6908 12.2785L11.1209 16.8485L7.85962 13.5872L4.4247 17.0221L3.58614 16.1836L7.85962 11.9101L11.1209 15.1713L14.8523 11.4399L15.6908 12.2785Z" fill="#666766"/>
</svg>
