<svg width="23" height="23" viewBox="0 0 23 23" fill="none" xmlns="http://www.w3.org/2000/svg">
<path fill-rule="evenodd" clip-rule="evenodd" d="M11.2117 1.50173C8.95559 1.50173 7.0342 3.52521 7.0342 6.14075C7.0342 8.75629 8.95559 10.7798 11.2117 10.7798C13.4678 10.7798 15.3891 8.75629 15.3891 6.14075C15.3891 3.52521 13.4678 1.50173 11.2117 1.50173ZM5.8291 6.14075C5.8291 2.96661 8.18789 0.296631 11.2117 0.296631C14.2354 0.296631 16.5942 2.96661 16.5942 6.14075C16.5942 9.31489 14.2354 11.9849 11.2117 11.9849C8.18789 11.9849 5.8291 9.31489 5.8291 6.14075Z" fill="#E6740C"/>
<path fill-rule="evenodd" clip-rule="evenodd" d="M1.82911 21.2841H20.5918C19.1753 17.0507 15.4856 14.085 11.2104 14.085C6.93534 14.085 3.24609 17.0507 1.82911 21.2841ZM0.438417 21.734C1.76867 16.6526 6.05851 12.8799 11.2104 12.8799C16.3623 12.8799 20.6528 16.6526 21.9825 21.7341L22.18 22.4892H0.24073L0.438417 21.734Z" fill="#E6740C"/>
</svg>
